<svg xmlns="http://www.w3.org/2000/svg" xmlns:xlink="http://www.w3.org/1999/xlink" width="300" zoomAndPan="magnify" viewBox="0 0 224.87999 225" height="300" preserveAspectRatio="xMidYMid meet" version="1.0"><defs><clipPath id="id1"><path d="M 0 0.0585938 L 224.761719 0.0585938 L 224.761719 224.9375 L 0 224.9375 Z M 0 0.0585938 " clip-rule="nonzero"/></clipPath><clipPath id="id2"><path d="M 36.703125 25.171875 L 188.121094 25.171875 L 188.121094 199.828125 L 36.703125 199.828125 Z M 36.703125 25.171875 " clip-rule="nonzero"/></clipPath><clipPath id="id3"><path d="M 142.253906 54.164062 L 118.867188 67.671875 C 118.261719 68.011719 117.785156 68.480469 117.441406 69.082031 C 117.09375 69.679688 116.925781 70.328125 116.933594 71.019531 L 116.933594 98.078125 C 116.933594 98.246094 116.945312 98.414062 116.96875 98.582031 C 116.992188 98.75 117.023438 98.914062 117.066406 99.078125 C 117.109375 99.238281 117.164062 99.398438 117.230469 99.554688 C 117.292969 99.710938 117.367188 99.863281 117.453125 100.007812 C 117.539062 100.152344 117.628906 100.292969 117.734375 100.429688 C 117.835938 100.5625 117.945312 100.6875 118.066406 100.808594 C 118.1875 100.925781 118.3125 101.039062 118.445312 101.140625 C 118.578125 101.246094 118.71875 101.335938 118.867188 101.421875 C 119.011719 101.507812 119.164062 101.582031 119.320312 101.644531 C 119.476562 101.710938 119.632812 101.765625 119.796875 101.808594 C 119.960938 101.851562 120.125 101.886719 120.292969 101.90625 C 120.460938 101.929688 120.628906 101.941406 120.796875 101.941406 C 120.964844 101.941406 121.132812 101.929688 121.300781 101.90625 C 121.46875 101.886719 121.632812 101.851562 121.796875 101.808594 C 121.960938 101.765625 122.117188 101.710938 122.273438 101.644531 C 122.429688 101.582031 122.582031 101.507812 122.726562 101.421875 L 146.113281 87.917969 C 146.71875 87.578125 147.195312 87.109375 147.539062 86.507812 C 147.886719 85.910156 148.054688 85.261719 148.046875 84.570312 L 148.046875 57.507812 C 148.046875 57.339844 148.035156 57.171875 148.011719 57.003906 C 147.992188 56.835938 147.957031 56.671875 147.914062 56.507812 C 147.871094 56.347656 147.816406 56.1875 147.753906 56.03125 C 147.6875 55.875 147.613281 55.722656 147.527344 55.578125 C 147.445312 55.429688 147.351562 55.292969 147.246094 55.15625 C 147.144531 55.023438 147.035156 54.898438 146.914062 54.777344 C 146.796875 54.65625 146.667969 54.546875 146.535156 54.445312 C 146.402344 54.339844 146.261719 54.246094 146.117188 54.164062 C 145.96875 54.078125 145.816406 54.003906 145.664062 53.941406 C 145.507812 53.875 145.347656 53.820312 145.183594 53.777344 C 145.019531 53.734375 144.855469 53.699219 144.6875 53.679688 C 144.519531 53.65625 144.351562 53.644531 144.183594 53.644531 C 144.015625 53.644531 143.847656 53.65625 143.679688 53.679688 C 143.511719 53.699219 143.347656 53.734375 143.183594 53.777344 C 143.023438 53.820312 142.863281 53.875 142.707031 53.9375 C 142.550781 54.003906 142.398438 54.078125 142.253906 54.164062 Z M 182.328125 101.425781 L 158.902344 87.894531 C 158.296875 87.558594 157.820312 87.089844 157.476562 86.488281 C 157.128906 85.886719 156.960938 85.242188 156.972656 84.550781 L 156.972656 57.492188 C 156.972656 57.324219 156.980469 57.15625 157.003906 56.988281 C 157.027344 56.820312 157.058594 56.65625 157.101562 56.496094 C 157.148438 56.332031 157.199219 56.171875 157.265625 56.015625 C 157.332031 55.859375 157.40625 55.707031 157.488281 55.5625 C 157.574219 55.417969 157.667969 55.277344 157.769531 55.144531 C 157.871094 55.007812 157.984375 54.882812 158.101562 54.761719 C 158.222656 54.644531 158.347656 54.53125 158.484375 54.429688 C 158.617188 54.328125 158.757812 54.234375 158.902344 54.148438 C 159.050781 54.066406 159.199219 53.992188 159.355469 53.925781 C 159.511719 53.863281 159.671875 53.808594 159.832031 53.765625 C 159.996094 53.71875 160.160156 53.6875 160.328125 53.664062 C 160.496094 53.644531 160.664062 53.632812 160.832031 53.632812 C 161 53.632812 161.167969 53.644531 161.335938 53.664062 C 161.503906 53.6875 161.667969 53.71875 161.832031 53.765625 C 161.996094 53.808594 162.15625 53.863281 162.308594 53.925781 C 162.464844 53.992188 162.617188 54.066406 162.761719 54.148438 L 186.191406 67.679688 C 186.792969 68.015625 187.269531 68.484375 187.617188 69.085938 C 187.964844 69.6875 188.132812 70.332031 188.121094 71.027344 L 188.121094 98.078125 C 188.121094 98.246094 188.109375 98.414062 188.089844 98.582031 C 188.066406 98.75 188.035156 98.914062 187.988281 99.078125 C 187.945312 99.238281 187.890625 99.398438 187.828125 99.554688 C 187.761719 99.710938 187.6875 99.863281 187.605469 100.007812 C 187.519531 100.152344 187.425781 100.292969 187.324219 100.429688 C 187.21875 100.5625 187.109375 100.6875 186.988281 100.808594 C 186.871094 100.925781 186.742188 101.039062 186.609375 101.140625 C 186.476562 101.242188 186.335938 101.335938 186.191406 101.421875 C 186.042969 101.507812 185.894531 101.582031 185.738281 101.644531 C 185.582031 101.710938 185.421875 101.765625 185.257812 101.808594 C 185.09375 101.851562 184.929688 101.882812 184.761719 101.90625 C 184.597656 101.929688 184.429688 101.941406 184.257812 101.941406 C 184.089844 101.941406 183.921875 101.929688 183.753906 101.90625 C 183.585938 101.886719 183.421875 101.851562 183.257812 101.808594 C 183.097656 101.765625 182.9375 101.710938 182.78125 101.648438 C 182.625 101.582031 182.472656 101.507812 182.328125 101.421875 Z M 156.96875 140.480469 L 156.96875 167.496094 C 156.96875 167.664062 156.980469 167.832031 157 168 C 157.023438 168.167969 157.058594 168.332031 157.101562 168.496094 C 157.144531 168.660156 157.199219 168.816406 157.261719 168.972656 C 157.328125 169.128906 157.402344 169.28125 157.488281 169.425781 C 157.570312 169.574219 157.664062 169.714844 157.769531 169.847656 C 157.871094 169.980469 157.980469 170.105469 158.101562 170.226562 C 158.21875 170.347656 158.347656 170.457031 158.480469 170.558594 C 158.613281 170.664062 158.753906 170.757812 158.902344 170.839844 C 159.046875 170.925781 159.199219 171 159.355469 171.0625 C 159.511719 171.128906 159.667969 171.183594 159.832031 171.226562 C 159.996094 171.269531 160.160156 171.304688 160.328125 171.324219 C 160.496094 171.347656 160.664062 171.359375 160.832031 171.359375 C 161 171.359375 161.167969 171.347656 161.335938 171.324219 C 161.503906 171.304688 161.667969 171.269531 161.832031 171.226562 C 161.996094 171.183594 162.152344 171.128906 162.308594 171.066406 C 162.464844 171 162.617188 170.925781 162.761719 170.84375 L 186.1875 157.3125 C 186.792969 156.976562 187.269531 156.503906 187.613281 155.90625 C 187.960938 155.304688 188.128906 154.660156 188.121094 153.964844 L 188.121094 126.949219 C 188.121094 126.78125 188.109375 126.613281 188.085938 126.445312 C 188.0625 126.277344 188.03125 126.113281 187.988281 125.949219 C 187.945312 125.785156 187.890625 125.625 187.824219 125.46875 C 187.761719 125.3125 187.6875 125.164062 187.601562 125.015625 C 187.515625 124.871094 187.421875 124.730469 187.320312 124.597656 C 187.21875 124.464844 187.105469 124.335938 186.988281 124.21875 C 186.867188 124.097656 186.742188 123.988281 186.605469 123.882812 C 186.472656 123.78125 186.332031 123.6875 186.1875 123.601562 C 186.042969 123.519531 185.890625 123.445312 185.734375 123.378906 C 185.578125 123.316406 185.417969 123.261719 185.257812 123.21875 C 185.09375 123.171875 184.929688 123.140625 184.761719 123.117188 C 184.59375 123.097656 184.425781 123.085938 184.257812 123.085938 C 184.085938 123.085938 183.917969 123.097656 183.753906 123.117188 C 183.585938 123.140625 183.417969 123.171875 183.257812 123.214844 C 183.09375 123.261719 182.933594 123.3125 182.777344 123.378906 C 182.621094 123.441406 182.472656 123.515625 182.324219 123.601562 L 158.902344 137.132812 C 158.296875 137.472656 157.820312 137.941406 157.476562 138.539062 C 157.128906 139.140625 156.960938 139.785156 156.96875 140.476562 Z M 127.167969 115.871094 C 127.023438 115.789062 126.882812 115.695312 126.75 115.589844 C 126.613281 115.488281 126.488281 115.375 126.367188 115.257812 C 126.25 115.136719 126.140625 115.011719 126.035156 114.878906 C 125.933594 114.742188 125.839844 114.601562 125.753906 114.457031 C 125.671875 114.3125 125.597656 114.160156 125.53125 114.003906 C 125.46875 113.847656 125.414062 113.6875 125.371094 113.523438 C 125.328125 113.363281 125.292969 113.195312 125.273438 113.03125 C 125.25 112.863281 125.238281 112.695312 125.238281 112.523438 C 125.238281 112.355469 125.25 112.1875 125.273438 112.019531 C 125.292969 111.855469 125.328125 111.6875 125.371094 111.523438 C 125.414062 111.363281 125.46875 111.203125 125.53125 111.046875 C 125.597656 110.890625 125.671875 110.738281 125.753906 110.59375 C 125.839844 110.449219 125.933594 110.308594 126.035156 110.171875 C 126.140625 110.039062 126.25 109.914062 126.367188 109.792969 C 126.488281 109.671875 126.613281 109.5625 126.75 109.460938 C 126.882812 109.355469 127.023438 109.261719 127.167969 109.179688 L 150.59375 95.648438 C 151.191406 95.292969 151.832031 95.117188 152.527344 95.117188 C 153.21875 95.117188 153.863281 95.292969 154.457031 95.648438 L 177.847656 109.15625 C 177.992188 109.242188 178.132812 109.335938 178.265625 109.4375 C 178.398438 109.542969 178.527344 109.652344 178.644531 109.773438 C 178.765625 109.890625 178.875 110.019531 178.976562 110.152344 C 179.082031 110.285156 179.175781 110.425781 179.257812 110.574219 C 179.34375 110.71875 179.417969 110.871094 179.480469 111.027344 C 179.546875 111.179688 179.601562 111.339844 179.644531 111.503906 C 179.6875 111.667969 179.722656 111.832031 179.742188 112 C 179.765625 112.167969 179.777344 112.335938 179.777344 112.503906 C 179.777344 112.671875 179.765625 112.839844 179.742188 113.007812 C 179.722656 113.175781 179.6875 113.339844 179.644531 113.503906 C 179.601562 113.667969 179.546875 113.824219 179.480469 113.980469 C 179.417969 114.136719 179.34375 114.289062 179.257812 114.433594 C 179.175781 114.582031 179.082031 114.722656 178.976562 114.855469 C 178.875 114.988281 178.765625 115.117188 178.644531 115.234375 C 178.527344 115.355469 178.398438 115.464844 178.265625 115.566406 C 178.132812 115.671875 177.992188 115.765625 177.847656 115.847656 L 154.417969 129.378906 C 153.824219 129.734375 153.179688 129.910156 152.488281 129.910156 C 151.796875 129.910156 151.152344 129.734375 150.558594 129.378906 Z M 87.054688 178.601562 L 110.480469 165.070312 C 111.074219 164.714844 111.71875 164.539062 112.410156 164.539062 C 113.105469 164.539062 113.746094 164.714844 114.34375 165.070312 L 137.769531 178.601562 C 137.914062 178.6875 138.054688 178.78125 138.191406 178.882812 C 138.324219 178.988281 138.449219 179.097656 138.570312 179.21875 C 138.6875 179.335938 138.800781 179.460938 138.902344 179.597656 C 139.003906 179.730469 139.097656 179.871094 139.183594 180.015625 C 139.265625 180.164062 139.339844 180.3125 139.40625 180.46875 C 139.46875 180.625 139.523438 180.785156 139.566406 180.949219 C 139.613281 181.113281 139.644531 181.277344 139.667969 181.445312 C 139.6875 181.609375 139.699219 181.777344 139.699219 181.949219 C 139.699219 182.117188 139.6875 182.285156 139.667969 182.453125 C 139.644531 182.621094 139.613281 182.785156 139.566406 182.949219 C 139.523438 183.109375 139.46875 183.269531 139.40625 183.425781 C 139.339844 183.582031 139.265625 183.734375 139.183594 183.878906 C 139.097656 184.023438 139.003906 184.164062 138.902344 184.300781 C 138.800781 184.433594 138.6875 184.558594 138.570312 184.679688 C 138.449219 184.796875 138.324219 184.910156 138.191406 185.011719 C 138.054688 185.113281 137.914062 185.207031 137.769531 185.292969 L 114.34375 198.824219 C 113.746094 199.179688 113.105469 199.355469 112.410156 199.355469 C 111.71875 199.355469 111.074219 199.179688 110.480469 198.824219 L 87.054688 185.292969 C 86.90625 185.207031 86.765625 185.113281 86.632812 185.011719 C 86.5 184.910156 86.375 184.796875 86.253906 184.679688 C 86.136719 184.558594 86.023438 184.433594 85.921875 184.300781 C 85.820312 184.164062 85.726562 184.023438 85.640625 183.878906 C 85.554688 183.734375 85.480469 183.582031 85.417969 183.425781 C 85.351562 183.269531 85.296875 183.109375 85.253906 182.949219 C 85.210938 182.785156 85.179688 182.621094 85.15625 182.453125 C 85.132812 182.285156 85.125 182.117188 85.125 181.949219 C 85.125 181.777344 85.132812 181.609375 85.15625 181.445312 C 85.179688 181.277344 85.210938 181.113281 85.253906 180.949219 C 85.296875 180.785156 85.351562 180.625 85.417969 180.46875 C 85.480469 180.3125 85.554688 180.164062 85.640625 180.015625 C 85.726562 179.871094 85.820312 179.730469 85.921875 179.597656 C 86.023438 179.460938 86.136719 179.335938 86.253906 179.21875 C 86.375 179.097656 86.5 178.988281 86.632812 178.882812 C 86.765625 178.78125 86.90625 178.6875 87.054688 178.601562 Z M 142.210938 170.855469 C 142.359375 170.941406 142.511719 171.015625 142.664062 171.082031 C 142.820312 171.144531 142.980469 171.199219 143.144531 171.242188 C 143.308594 171.285156 143.472656 171.320312 143.640625 171.339844 C 143.808594 171.363281 143.976562 171.375 144.144531 171.375 C 144.3125 171.375 144.480469 171.363281 144.648438 171.339844 C 144.816406 171.320312 144.980469 171.285156 145.144531 171.242188 C 145.304688 171.199219 145.464844 171.144531 145.621094 171.078125 C 145.777344 171.015625 145.929688 170.941406 146.074219 170.855469 C 146.21875 170.773438 146.359375 170.679688 146.496094 170.574219 C 146.628906 170.472656 146.753906 170.363281 146.875 170.242188 C 146.992188 170.121094 147.105469 169.996094 147.207031 169.863281 C 147.308594 169.726562 147.402344 169.589844 147.488281 169.441406 C 147.570312 169.296875 147.648438 169.144531 147.710938 168.988281 C 147.777344 168.832031 147.828125 168.671875 147.875 168.511719 C 147.917969 168.347656 147.949219 168.183594 147.972656 168.015625 C 147.992188 167.847656 148.003906 167.679688 148.003906 167.511719 L 148.003906 140.433594 C 148.015625 139.742188 147.847656 139.09375 147.5 138.496094 C 147.152344 137.894531 146.679688 137.425781 146.074219 137.085938 L 122.6875 123.578125 C 122.539062 123.496094 122.390625 123.417969 122.234375 123.355469 C 122.078125 123.289062 121.917969 123.238281 121.753906 123.191406 C 121.59375 123.148438 121.425781 123.117188 121.257812 123.09375 C 121.09375 123.074219 120.925781 123.0625 120.753906 123.0625 C 120.585938 123.0625 120.417969 123.074219 120.25 123.09375 C 120.085938 123.117188 119.917969 123.148438 119.757812 123.195312 C 119.59375 123.238281 119.433594 123.292969 119.277344 123.355469 C 119.121094 123.421875 118.972656 123.496094 118.824219 123.578125 C 118.679688 123.664062 118.539062 123.757812 118.40625 123.859375 C 118.269531 123.964844 118.144531 124.074219 118.023438 124.195312 C 117.90625 124.3125 117.796875 124.441406 117.691406 124.574219 C 117.589844 124.707031 117.496094 124.847656 117.410156 124.992188 C 117.328125 125.140625 117.253906 125.292969 117.1875 125.445312 C 117.125 125.601562 117.070312 125.761719 117.027344 125.925781 C 116.980469 126.089844 116.949219 126.253906 116.925781 126.421875 C 116.90625 126.589844 116.894531 126.757812 116.894531 126.925781 L 116.894531 153.988281 C 116.882812 154.679688 117.050781 155.324219 117.398438 155.925781 C 117.746094 156.523438 118.21875 156.992188 118.824219 157.332031 L 142.210938 170.839844 Z M 67.855469 167.511719 L 67.855469 140.433594 C 67.863281 139.742188 67.695312 139.09375 67.351562 138.496094 C 67.003906 137.894531 66.527344 137.425781 65.925781 137.085938 L 42.496094 123.558594 C 42.351562 123.472656 42.199219 123.398438 42.042969 123.335938 C 41.890625 123.269531 41.730469 123.214844 41.566406 123.171875 C 41.402344 123.128906 41.238281 123.097656 41.070312 123.074219 C 40.902344 123.050781 40.734375 123.042969 40.566406 123.042969 C 40.398438 123.042969 40.230469 123.054688 40.0625 123.074219 C 39.894531 123.097656 39.730469 123.128906 39.566406 123.171875 C 39.40625 123.21875 39.246094 123.269531 39.089844 123.335938 C 38.933594 123.398438 38.78125 123.476562 38.636719 123.558594 C 38.492188 123.644531 38.351562 123.738281 38.21875 123.839844 C 38.082031 123.941406 37.957031 124.054688 37.835938 124.171875 C 37.71875 124.292969 37.605469 124.417969 37.503906 124.550781 C 37.402344 124.6875 37.308594 124.824219 37.222656 124.972656 C 37.136719 125.117188 37.0625 125.269531 37 125.425781 C 36.933594 125.582031 36.878906 125.738281 36.835938 125.902344 C 36.792969 126.066406 36.757812 126.230469 36.738281 126.398438 C 36.714844 126.566406 36.703125 126.734375 36.703125 126.902344 L 36.703125 153.964844 C 36.695312 154.65625 36.863281 155.304688 37.207031 155.902344 C 37.554688 156.503906 38.03125 156.972656 38.636719 157.308594 L 62.058594 170.839844 C 62.207031 170.921875 62.355469 171 62.511719 171.0625 C 62.667969 171.128906 62.828125 171.179688 62.992188 171.226562 C 63.15625 171.269531 63.320312 171.300781 63.488281 171.324219 C 63.65625 171.34375 63.824219 171.355469 63.992188 171.355469 C 64.160156 171.355469 64.328125 171.34375 64.496094 171.324219 C 64.664062 171.300781 64.828125 171.269531 64.992188 171.222656 C 65.152344 171.179688 65.3125 171.125 65.46875 171.0625 C 65.625 170.996094 65.777344 170.921875 65.921875 170.839844 C 66.066406 170.753906 66.207031 170.660156 66.34375 170.558594 C 66.476562 170.453125 66.601562 170.34375 66.722656 170.222656 C 66.839844 170.105469 66.953125 169.976562 67.054688 169.84375 C 67.15625 169.710938 67.25 169.570312 67.335938 169.425781 C 67.421875 169.277344 67.496094 169.128906 67.558594 168.972656 C 67.625 168.816406 67.679688 168.65625 67.722656 168.492188 C 67.765625 168.328125 67.800781 168.164062 67.820312 167.996094 C 67.84375 167.828125 67.855469 167.660156 67.855469 167.492188 Z M 76.78125 140.453125 L 76.78125 167.46875 C 76.78125 167.636719 76.789062 167.804688 76.8125 167.972656 C 76.835938 168.136719 76.867188 168.304688 76.910156 168.464844 C 76.957031 168.628906 77.011719 168.789062 77.074219 168.945312 C 77.140625 169.101562 77.214844 169.25 77.296875 169.398438 C 77.382812 169.542969 77.476562 169.683594 77.578125 169.816406 C 77.679688 169.953125 77.792969 170.078125 77.910156 170.199219 C 78.03125 170.316406 78.15625 170.425781 78.292969 170.53125 C 78.425781 170.632812 78.566406 170.726562 78.710938 170.8125 C 78.859375 170.894531 79.007812 170.96875 79.164062 171.035156 C 79.320312 171.097656 79.480469 171.152344 79.640625 171.195312 C 79.804688 171.242188 79.96875 171.273438 80.136719 171.296875 C 80.304688 171.316406 80.472656 171.328125 80.640625 171.328125 C 80.808594 171.328125 80.976562 171.316406 81.144531 171.296875 C 81.3125 171.273438 81.476562 171.242188 81.640625 171.195312 C 81.804688 171.152344 81.964844 171.097656 82.117188 171.035156 C 82.273438 170.96875 82.425781 170.894531 82.570312 170.8125 L 106 157.28125 C 106.601562 156.945312 107.078125 156.472656 107.421875 155.875 C 107.769531 155.273438 107.9375 154.628906 107.929688 153.933594 L 107.929688 126.925781 C 107.929688 126.757812 107.917969 126.589844 107.894531 126.421875 C 107.875 126.253906 107.839844 126.089844 107.796875 125.925781 C 107.753906 125.761719 107.699219 125.601562 107.632812 125.445312 C 107.570312 125.289062 107.496094 125.140625 107.410156 124.992188 C 107.328125 124.847656 107.234375 124.707031 107.128906 124.574219 C 107.027344 124.441406 106.917969 124.3125 106.796875 124.195312 C 106.679688 124.074219 106.550781 123.964844 106.417969 123.859375 C 106.285156 123.757812 106.144531 123.664062 105.996094 123.578125 C 105.851562 123.496094 105.699219 123.421875 105.546875 123.355469 C 105.390625 123.292969 105.230469 123.238281 105.066406 123.195312 C 104.902344 123.148438 104.738281 123.117188 104.570312 123.09375 C 104.402344 123.074219 104.234375 123.0625 104.066406 123.0625 C 103.898438 123.0625 103.730469 123.074219 103.5625 123.09375 C 103.394531 123.117188 103.230469 123.148438 103.066406 123.191406 C 102.90625 123.238281 102.746094 123.289062 102.589844 123.355469 C 102.433594 123.417969 102.28125 123.496094 102.136719 123.578125 L 78.710938 137.109375 C 78.105469 137.449219 77.628906 137.917969 77.285156 138.519531 C 76.9375 139.117188 76.769531 139.765625 76.78125 140.457031 Z M 42.535156 101.398438 L 65.960938 87.871094 C 66.566406 87.53125 67.042969 87.0625 67.386719 86.464844 C 67.734375 85.863281 67.902344 85.21875 67.894531 84.523438 L 67.894531 57.464844 C 67.894531 57.296875 67.882812 57.128906 67.859375 56.960938 C 67.835938 56.792969 67.804688 56.628906 67.761719 56.464844 C 67.71875 56.300781 67.664062 56.144531 67.597656 55.988281 C 67.535156 55.832031 67.457031 55.679688 67.375 55.535156 C 67.289062 55.386719 67.195312 55.246094 67.09375 55.113281 C 66.992188 54.980469 66.878906 54.851562 66.761719 54.734375 C 66.640625 54.613281 66.515625 54.503906 66.378906 54.402344 C 66.246094 54.296875 66.105469 54.203125 65.960938 54.121094 C 65.816406 54.035156 65.664062 53.960938 65.507812 53.898438 C 65.351562 53.832031 65.191406 53.777344 65.027344 53.734375 C 64.867188 53.691406 64.699219 53.65625 64.535156 53.636719 C 64.367188 53.613281 64.199219 53.601562 64.03125 53.601562 C 63.859375 53.601562 63.691406 53.613281 63.527344 53.636719 C 63.359375 53.65625 63.191406 53.691406 63.03125 53.734375 C 62.867188 53.777344 62.707031 53.832031 62.550781 53.894531 C 62.394531 53.960938 62.246094 54.035156 62.097656 54.117188 L 38.671875 67.648438 C 38.066406 67.984375 37.589844 68.457031 37.246094 69.054688 C 36.898438 69.65625 36.730469 70.300781 36.742188 70.996094 L 36.742188 98.054688 C 36.742188 98.226562 36.753906 98.394531 36.777344 98.558594 C 36.796875 98.726562 36.832031 98.890625 36.875 99.054688 C 36.917969 99.21875 36.972656 99.378906 37.039062 99.535156 C 37.101562 99.6875 37.175781 99.839844 37.261719 99.988281 C 37.347656 100.132812 37.4375 100.273438 37.542969 100.40625 C 37.644531 100.539062 37.757812 100.667969 37.875 100.785156 C 37.996094 100.90625 38.121094 101.015625 38.253906 101.117188 C 38.390625 101.222656 38.527344 101.316406 38.675781 101.398438 C 38.820312 101.484375 38.972656 101.558594 39.128906 101.621094 C 39.285156 101.6875 39.445312 101.742188 39.605469 101.785156 C 39.769531 101.828125 39.933594 101.859375 40.101562 101.882812 C 40.269531 101.90625 40.4375 101.917969 40.605469 101.917969 C 40.773438 101.917969 40.941406 101.90625 41.109375 101.882812 C 41.277344 101.863281 41.441406 101.828125 41.605469 101.785156 C 41.769531 101.742188 41.925781 101.6875 42.082031 101.625 C 42.238281 101.558594 42.390625 101.484375 42.535156 101.398438 Z M 70.402344 95.613281 C 71 95.261719 71.644531 95.082031 72.335938 95.082031 C 73.027344 95.082031 73.671875 95.261719 74.265625 95.613281 L 97.691406 109.144531 C 97.839844 109.230469 97.980469 109.324219 98.113281 109.425781 C 98.246094 109.527344 98.375 109.640625 98.492188 109.757812 C 98.613281 109.878906 98.722656 110.003906 98.824219 110.140625 C 98.929688 110.273438 99.023438 110.414062 99.105469 110.558594 C 99.191406 110.707031 99.265625 110.855469 99.328125 111.011719 C 99.394531 111.167969 99.449219 111.328125 99.492188 111.492188 C 99.535156 111.652344 99.566406 111.820312 99.589844 111.988281 C 99.613281 112.152344 99.625 112.320312 99.621094 112.492188 C 99.625 112.660156 99.613281 112.828125 99.589844 112.996094 C 99.566406 113.160156 99.535156 113.328125 99.492188 113.488281 C 99.449219 113.652344 99.394531 113.8125 99.328125 113.96875 C 99.265625 114.125 99.191406 114.277344 99.105469 114.421875 C 99.023438 114.566406 98.929688 114.707031 98.824219 114.839844 C 98.722656 114.976562 98.613281 115.101562 98.492188 115.222656 C 98.375 115.339844 98.246094 115.453125 98.113281 115.554688 C 97.980469 115.65625 97.839844 115.75 97.691406 115.835938 L 74.304688 129.34375 C 73.710938 129.699219 73.066406 129.875 72.375 129.875 C 71.679688 129.875 71.039062 129.699219 70.441406 129.34375 L 47.015625 115.8125 C 46.871094 115.726562 46.730469 115.636719 46.59375 115.53125 C 46.460938 115.429688 46.335938 115.316406 46.214844 115.199219 C 46.097656 115.078125 45.984375 114.953125 45.882812 114.820312 C 45.78125 114.683594 45.6875 114.542969 45.601562 114.398438 C 45.519531 114.253906 45.445312 114.101562 45.378906 113.945312 C 45.316406 113.789062 45.261719 113.628906 45.21875 113.46875 C 45.171875 113.304688 45.140625 113.140625 45.117188 112.972656 C 45.097656 112.804688 45.085938 112.636719 45.085938 112.46875 C 45.085938 112.300781 45.097656 112.128906 45.117188 111.964844 C 45.140625 111.796875 45.171875 111.632812 45.21875 111.46875 C 45.261719 111.304688 45.316406 111.144531 45.378906 110.988281 C 45.445312 110.832031 45.519531 110.683594 45.601562 110.535156 C 45.6875 110.390625 45.78125 110.25 45.882812 110.117188 C 45.984375 109.984375 46.097656 109.855469 46.214844 109.738281 C 46.335938 109.617188 46.460938 109.507812 46.59375 109.402344 C 46.730469 109.300781 46.871094 109.207031 47.015625 109.121094 Z M 87.09375 46.417969 C 86.945312 46.335938 86.804688 46.242188 86.671875 46.136719 C 86.539062 46.035156 86.410156 45.925781 86.292969 45.804688 C 86.171875 45.683594 86.0625 45.558594 85.960938 45.425781 C 85.855469 45.289062 85.761719 45.152344 85.679688 45.003906 C 85.59375 44.859375 85.519531 44.707031 85.457031 44.550781 C 85.390625 44.394531 85.335938 44.234375 85.292969 44.074219 C 85.25 43.910156 85.21875 43.746094 85.195312 43.578125 C 85.171875 43.410156 85.164062 43.242188 85.164062 43.074219 C 85.164062 42.902344 85.171875 42.734375 85.195312 42.570312 C 85.21875 42.402344 85.25 42.234375 85.292969 42.074219 C 85.335938 41.910156 85.390625 41.75 85.457031 41.59375 C 85.519531 41.4375 85.59375 41.289062 85.679688 41.140625 C 85.761719 40.996094 85.855469 40.855469 85.960938 40.722656 C 86.0625 40.585938 86.171875 40.460938 86.292969 40.339844 C 86.410156 40.222656 86.539062 40.109375 86.671875 40.007812 C 86.804688 39.90625 86.945312 39.8125 87.09375 39.726562 L 110.519531 26.195312 C 111.113281 25.839844 111.757812 25.664062 112.449219 25.664062 C 113.144531 25.664062 113.785156 25.839844 114.382812 26.195312 L 126.09375 32.960938 L 137.808594 39.726562 C 137.953125 39.8125 138.09375 39.90625 138.226562 40.007812 C 138.363281 40.109375 138.488281 40.222656 138.605469 40.339844 C 138.726562 40.460938 138.835938 40.585938 138.941406 40.722656 C 139.042969 40.855469 139.136719 40.996094 139.21875 41.140625 C 139.304688 41.289062 139.378906 41.4375 139.445312 41.59375 C 139.507812 41.75 139.5625 41.910156 139.605469 42.074219 C 139.648438 42.234375 139.683594 42.402344 139.703125 42.570312 C 139.726562 42.734375 139.738281 42.902344 139.738281 43.074219 C 139.738281 43.242188 139.726562 43.410156 139.703125 43.578125 C 139.683594 43.746094 139.648438 43.910156 139.605469 44.074219 C 139.5625 44.234375 139.507812 44.394531 139.445312 44.550781 C 139.378906 44.707031 139.304688 44.859375 139.21875 45.003906 C 139.136719 45.152344 139.042969 45.289062 138.941406 45.425781 C 138.835938 45.558594 138.726562 45.683594 138.605469 45.804688 C 138.488281 45.925781 138.363281 46.035156 138.226562 46.136719 C 138.09375 46.242188 137.953125 46.335938 137.808594 46.417969 L 114.382812 59.949219 C 113.785156 60.304688 113.144531 60.484375 112.449219 60.484375 C 111.757812 60.484375 111.113281 60.304688 110.519531 59.949219 Z M 106.03125 67.671875 L 82.644531 54.164062 C 82.496094 54.078125 82.347656 54.003906 82.191406 53.9375 C 82.035156 53.875 81.875 53.820312 81.710938 53.777344 C 81.550781 53.734375 81.382812 53.699219 81.214844 53.679688 C 81.050781 53.65625 80.882812 53.644531 80.710938 53.644531 C 80.542969 53.644531 80.375 53.65625 80.207031 53.679688 C 80.042969 53.699219 79.875 53.734375 79.714844 53.777344 C 79.550781 53.820312 79.390625 53.875 79.234375 53.941406 C 79.078125 54.003906 78.929688 54.078125 78.78125 54.164062 C 78.636719 54.246094 78.496094 54.339844 78.363281 54.445312 C 78.226562 54.546875 78.101562 54.65625 77.980469 54.777344 C 77.863281 54.898438 77.75 55.023438 77.648438 55.15625 C 77.546875 55.292969 77.453125 55.429688 77.367188 55.578125 C 77.285156 55.722656 77.210938 55.875 77.144531 56.03125 C 77.082031 56.1875 77.027344 56.347656 76.984375 56.507812 C 76.9375 56.671875 76.90625 56.835938 76.882812 57.003906 C 76.863281 57.171875 76.851562 57.339844 76.851562 57.507812 L 76.851562 84.570312 C 76.84375 85.261719 77.011719 85.910156 77.355469 86.507812 C 77.703125 87.109375 78.175781 87.578125 78.78125 87.917969 L 102.167969 101.421875 C 102.316406 101.507812 102.46875 101.582031 102.621094 101.644531 C 102.777344 101.710938 102.9375 101.765625 103.101562 101.808594 C 103.265625 101.851562 103.429688 101.886719 103.597656 101.90625 C 103.765625 101.929688 103.933594 101.941406 104.101562 101.941406 C 104.269531 101.941406 104.4375 101.929688 104.605469 101.90625 C 104.773438 101.882812 104.9375 101.851562 105.101562 101.808594 C 105.261719 101.765625 105.421875 101.710938 105.578125 101.644531 C 105.734375 101.582031 105.886719 101.507812 106.03125 101.421875 C 106.175781 101.335938 106.316406 101.242188 106.453125 101.140625 C 106.585938 101.039062 106.710938 100.925781 106.832031 100.808594 C 106.949219 100.6875 107.0625 100.5625 107.164062 100.429688 C 107.265625 100.292969 107.359375 100.152344 107.445312 100.007812 C 107.527344 99.863281 107.601562 99.710938 107.667969 99.554688 C 107.734375 99.398438 107.785156 99.238281 107.832031 99.078125 C 107.875 98.914062 107.90625 98.746094 107.929688 98.582031 C 107.949219 98.414062 107.960938 98.246094 107.960938 98.078125 L 107.960938 71.019531 C 107.972656 70.324219 107.804688 69.679688 107.460938 69.082031 C 107.117188 68.480469 106.640625 68.011719 106.039062 67.671875 Z M 106.03125 67.671875 " clip-rule="evenodd"/></clipPath><radialGradient gradientTransform="matrix(0.999812, 0, 0, 1.000188, -597.591188, -719.859001)" gradientUnits="userSpaceOnUse" r="173.640057" cx="710.137611" id="id4" cy="919.023274" fx="710.137611" fy="919.023274"><stop stop-opacity="1" stop-color="rgb(99.966431%, 79.267883%, 6.842041%)" offset="0"/><stop stop-opacity="1" stop-color="rgb(99.902344%, 78.605652%, 7.130432%)" offset="0.00390625"/><stop stop-opacity="1" stop-color="rgb(99.838257%, 77.94342%, 7.418823%)" offset="0.0078125"/><stop stop-opacity="1" stop-color="rgb(99.772644%, 77.281189%, 7.707214%)" offset="0.0117188"/><stop stop-opacity="1" stop-color="rgb(99.708557%, 76.618958%, 7.99408%)" offset="0.015625"/><stop stop-opacity="1" stop-color="rgb(99.64447%, 75.956726%, 8.282471%)" offset="0.0195312"/><stop stop-opacity="1" stop-color="rgb(99.580383%, 75.294495%, 8.570862%)" offset="0.0234375"/><stop stop-opacity="1" stop-color="rgb(99.514771%, 74.632263%, 8.857727%)" offset="0.0273438"/><stop stop-opacity="1" stop-color="rgb(99.450684%, 73.970032%, 9.146118%)" offset="0.03125"/><stop stop-opacity="1" stop-color="rgb(99.386597%, 73.3078%, 9.434509%)" offset="0.0351562"/><stop stop-opacity="1" stop-color="rgb(99.32251%, 72.645569%, 9.7229%)" offset="0.0390625"/><stop stop-opacity="1" stop-color="rgb(99.256897%, 71.983337%, 10.009766%)" offset="0.0429688"/><stop stop-opacity="1" stop-color="rgb(99.19281%, 71.321106%, 10.298157%)" offset="0.046875"/><stop stop-opacity="1" stop-color="rgb(99.128723%, 70.658875%, 10.586548%)" offset="0.0507812"/><stop stop-opacity="1" stop-color="rgb(99.06311%, 69.996643%, 10.874939%)" offset="0.0546875"/><stop stop-opacity="1" stop-color="rgb(98.999023%, 69.334412%, 11.161804%)" offset="0.0585938"/><stop stop-opacity="1" stop-color="rgb(98.934937%, 68.67218%, 11.450195%)" offset="0.0625"/><stop stop-opacity="1" stop-color="rgb(98.87085%, 68.009949%, 11.738586%)" offset="0.0664062"/><stop stop-opacity="1" stop-color="rgb(98.805237%, 67.347717%, 12.025452%)" offset="0.0703125"/><stop stop-opacity="1" stop-color="rgb(98.74115%, 66.685486%, 12.313843%)" offset="0.0742188"/><stop stop-opacity="1" stop-color="rgb(98.677063%, 66.023254%, 12.602234%)" offset="0.078125"/><stop stop-opacity="1" stop-color="rgb(98.612976%, 65.361023%, 12.890625%)" offset="0.0820312"/><stop stop-opacity="1" stop-color="rgb(98.547363%, 64.698792%, 13.17749%)" offset="0.0859375"/><stop stop-opacity="1" stop-color="rgb(98.483276%, 64.03656%, 13.465881%)" offset="0.0898438"/><stop stop-opacity="1" stop-color="rgb(98.419189%, 63.374329%, 13.754272%)" offset="0.09375"/><stop stop-opacity="1" stop-color="rgb(98.353577%, 62.712097%, 14.042664%)" offset="0.0976562"/><stop stop-opacity="1" stop-color="rgb(98.28949%, 62.049866%, 14.329529%)" offset="0.101562"/><stop stop-opacity="1" stop-color="rgb(98.225403%, 61.387634%, 14.61792%)" offset="0.105469"/><stop stop-opacity="1" stop-color="rgb(98.161316%, 60.725403%, 14.906311%)" offset="0.109375"/><stop stop-opacity="1" stop-color="rgb(98.095703%, 60.063171%, 15.193176%)" offset="0.113281"/><stop stop-opacity="1" stop-color="rgb(98.031616%, 59.40094%, 15.481567%)" offset="0.117188"/><stop stop-opacity="1" stop-color="rgb(97.967529%, 58.738708%, 15.769958%)" offset="0.121094"/><stop stop-opacity="1" stop-color="rgb(97.903442%, 58.076477%, 16.05835%)" offset="0.125"/><stop stop-opacity="1" stop-color="rgb(97.83783%, 57.414246%, 16.345215%)" offset="0.128906"/><stop stop-opacity="1" stop-color="rgb(97.773743%, 56.752014%, 16.633606%)" offset="0.132812"/><stop stop-opacity="1" stop-color="rgb(97.709656%, 56.089783%, 16.921997%)" offset="0.136719"/><stop stop-opacity="1" stop-color="rgb(97.645569%, 55.427551%, 17.210388%)" offset="0.140625"/><stop stop-opacity="1" stop-color="rgb(97.579956%, 54.76532%, 17.497253%)" offset="0.144531"/><stop stop-opacity="1" stop-color="rgb(97.515869%, 54.103088%, 17.785645%)" offset="0.148438"/><stop stop-opacity="1" stop-color="rgb(97.451782%, 53.440857%, 18.074036%)" offset="0.152344"/><stop stop-opacity="1" stop-color="rgb(97.386169%, 52.778625%, 18.360901%)" offset="0.15625"/><stop stop-opacity="1" stop-color="rgb(97.322083%, 52.116394%, 18.649292%)" offset="0.160156"/><stop stop-opacity="1" stop-color="rgb(97.257996%, 51.454163%, 18.937683%)" offset="0.164062"/><stop stop-opacity="1" stop-color="rgb(97.193909%, 50.791931%, 19.226074%)" offset="0.167969"/><stop stop-opacity="1" stop-color="rgb(97.128296%, 50.1297%, 19.512939%)" offset="0.171875"/><stop stop-opacity="1" stop-color="rgb(97.064209%, 49.467468%, 19.801331%)" offset="0.175781"/><stop stop-opacity="1" stop-color="rgb(97.000122%, 48.805237%, 20.089722%)" offset="0.179688"/><stop stop-opacity="1" stop-color="rgb(96.936035%, 48.143005%, 20.378113%)" offset="0.183594"/><stop stop-opacity="1" stop-color="rgb(96.870422%, 47.480774%, 20.664978%)" offset="0.1875"/><stop stop-opacity="1" stop-color="rgb(96.806335%, 46.818542%, 20.953369%)" offset="0.191406"/><stop stop-opacity="1" stop-color="rgb(96.742249%, 46.156311%, 21.24176%)" offset="0.195312"/><stop stop-opacity="1" stop-color="rgb(96.676636%, 45.49408%, 21.528625%)" offset="0.199219"/><stop stop-opacity="1" stop-color="rgb(96.612549%, 44.831848%, 21.817017%)" offset="0.203125"/><stop stop-opacity="1" stop-color="rgb(96.548462%, 44.169617%, 22.105408%)" offset="0.207031"/><stop stop-opacity="1" stop-color="rgb(96.484375%, 43.507385%, 22.393799%)" offset="0.210938"/><stop stop-opacity="1" stop-color="rgb(96.418762%, 42.845154%, 22.680664%)" offset="0.214844"/><stop stop-opacity="1" stop-color="rgb(96.354675%, 42.182922%, 22.969055%)" offset="0.21875"/><stop stop-opacity="1" stop-color="rgb(96.290588%, 41.520691%, 23.257446%)" offset="0.222656"/><stop stop-opacity="1" stop-color="rgb(96.226501%, 40.858459%, 23.544312%)" offset="0.226562"/><stop stop-opacity="1" stop-color="rgb(96.160889%, 40.196228%, 23.832703%)" offset="0.230469"/><stop stop-opacity="1" stop-color="rgb(96.096802%, 39.533997%, 24.121094%)" offset="0.234375"/><stop stop-opacity="1" stop-color="rgb(96.032715%, 38.871765%, 24.409485%)" offset="0.238281"/><stop stop-opacity="1" stop-color="rgb(95.968628%, 38.209534%, 24.69635%)" offset="0.242188"/><stop stop-opacity="1" stop-color="rgb(95.903015%, 37.547302%, 24.984741%)" offset="0.246094"/><stop stop-opacity="1" stop-color="rgb(95.838928%, 36.885071%, 25.273132%)" offset="0.25"/><stop stop-opacity="1" stop-color="rgb(95.774841%, 36.222839%, 25.561523%)" offset="0.253906"/><stop stop-opacity="1" stop-color="rgb(95.709229%, 35.560608%, 25.848389%)" offset="0.257812"/><stop stop-opacity="1" stop-color="rgb(95.645142%, 34.898376%, 26.13678%)" offset="0.261719"/><stop stop-opacity="1" stop-color="rgb(95.581055%, 34.236145%, 26.425171%)" offset="0.265625"/><stop stop-opacity="1" stop-color="rgb(95.516968%, 33.573914%, 26.712036%)" offset="0.269531"/><stop stop-opacity="1" stop-color="rgb(95.451355%, 32.910156%, 27.000427%)" offset="0.273438"/><stop stop-opacity="1" stop-color="rgb(95.387268%, 32.247925%, 27.288818%)" offset="0.277344"/><stop stop-opacity="1" stop-color="rgb(95.323181%, 31.585693%, 27.577209%)" offset="0.28125"/><stop stop-opacity="1" stop-color="rgb(95.259094%, 30.923462%, 27.864075%)" offset="0.285156"/><stop stop-opacity="1" stop-color="rgb(95.193481%, 30.26123%, 28.152466%)" offset="0.289062"/><stop stop-opacity="1" stop-color="rgb(95.129395%, 29.598999%, 28.440857%)" offset="0.292969"/><stop stop-opacity="1" stop-color="rgb(95.065308%, 28.936768%, 28.729248%)" offset="0.296875"/><stop stop-opacity="1" stop-color="rgb(94.999695%, 28.274536%, 29.016113%)" offset="0.300781"/><stop stop-opacity="1" stop-color="rgb(94.935608%, 27.612305%, 29.304504%)" offset="0.304688"/><stop stop-opacity="1" stop-color="rgb(94.871521%, 26.950073%, 29.592896%)" offset="0.308594"/><stop stop-opacity="1" stop-color="rgb(94.807434%, 26.287842%, 29.879761%)" offset="0.3125"/><stop stop-opacity="1" stop-color="rgb(94.741821%, 25.62561%, 30.168152%)" offset="0.316406"/><stop stop-opacity="1" stop-color="rgb(94.677734%, 24.963379%, 30.456543%)" offset="0.320312"/><stop stop-opacity="1" stop-color="rgb(94.613647%, 24.301147%, 30.744934%)" offset="0.324219"/><stop stop-opacity="1" stop-color="rgb(94.549561%, 23.638916%, 31.031799%)" offset="0.328125"/><stop stop-opacity="1" stop-color="rgb(94.483948%, 22.976685%, 31.32019%)" offset="0.332031"/><stop stop-opacity="1" stop-color="rgb(94.419861%, 22.314453%, 31.608582%)" offset="0.335938"/><stop stop-opacity="1" stop-color="rgb(94.355774%, 21.652222%, 31.896973%)" offset="0.339844"/><stop stop-opacity="1" stop-color="rgb(94.290161%, 20.98999%, 32.183838%)" offset="0.34375"/><stop stop-opacity="1" stop-color="rgb(94.226074%, 20.327759%, 32.472229%)" offset="0.347656"/><stop stop-opacity="1" stop-color="rgb(94.161987%, 19.665527%, 32.76062%)" offset="0.351562"/><stop stop-opacity="1" stop-color="rgb(94.0979%, 19.003296%, 33.047485%)" offset="0.355469"/><stop stop-opacity="1" stop-color="rgb(94.032288%, 18.341064%, 33.335876%)" offset="0.359375"/><stop stop-opacity="1" stop-color="rgb(93.968201%, 17.678833%, 33.624268%)" offset="0.363281"/><stop stop-opacity="1" stop-color="rgb(93.904114%, 17.016602%, 33.912659%)" offset="0.367188"/><stop stop-opacity="1" stop-color="rgb(93.840027%, 16.35437%, 34.199524%)" offset="0.371094"/><stop stop-opacity="1" stop-color="rgb(93.774414%, 15.692139%, 34.487915%)" offset="0.375"/><stop stop-opacity="1" stop-color="rgb(93.710327%, 15.029907%, 34.776306%)" offset="0.378906"/><stop stop-opacity="1" stop-color="rgb(93.64624%, 14.367676%, 35.064697%)" offset="0.382812"/><stop stop-opacity="1" stop-color="rgb(93.582153%, 13.705444%, 35.351562%)" offset="0.386719"/><stop stop-opacity="1" stop-color="rgb(93.516541%, 13.043213%, 35.639954%)" offset="0.390625"/><stop stop-opacity="1" stop-color="rgb(93.452454%, 12.380981%, 35.928345%)" offset="0.394531"/><stop stop-opacity="1" stop-color="rgb(93.388367%, 11.71875%, 36.21521%)" offset="0.398438"/><stop stop-opacity="1" stop-color="rgb(93.322754%, 11.056519%, 36.503601%)" offset="0.402344"/><stop stop-opacity="1" stop-color="rgb(93.258667%, 10.394287%, 36.791992%)" offset="0.40625"/><stop stop-opacity="1" stop-color="rgb(93.19458%, 9.732056%, 37.080383%)" offset="0.410156"/><stop stop-opacity="1" stop-color="rgb(93.130493%, 9.069824%, 37.367249%)" offset="0.414062"/><stop stop-opacity="1" stop-color="rgb(93.06488%, 8.407593%, 37.65564%)" offset="0.417969"/><stop stop-opacity="1" stop-color="rgb(93.000793%, 7.745361%, 37.944031%)" offset="0.421875"/><stop stop-opacity="1" stop-color="rgb(92.936707%, 7.08313%, 38.230896%)" offset="0.425781"/><stop stop-opacity="1" stop-color="rgb(92.69104%, 6.762695%, 38.446045%)" offset="0.429688"/><stop stop-opacity="1" stop-color="rgb(92.250061%, 6.816101%, 38.581848%)" offset="0.433594"/><stop stop-opacity="1" stop-color="rgb(91.793823%, 6.900024%, 38.711548%)" offset="0.4375"/><stop stop-opacity="1" stop-color="rgb(91.337585%, 6.982422%, 38.841248%)" offset="0.441406"/><stop stop-opacity="1" stop-color="rgb(90.881348%, 7.064819%, 38.970947%)" offset="0.445312"/><stop stop-opacity="1" stop-color="rgb(90.42511%, 7.148743%, 39.100647%)" offset="0.449219"/><stop stop-opacity="1" stop-color="rgb(89.968872%, 7.23114%, 39.230347%)" offset="0.453125"/><stop stop-opacity="1" stop-color="rgb(89.512634%, 7.313538%, 39.360046%)" offset="0.457031"/><stop stop-opacity="1" stop-color="rgb(89.054871%, 7.397461%, 39.489746%)" offset="0.460938"/><stop stop-opacity="1" stop-color="rgb(88.598633%, 7.479858%, 39.61792%)" offset="0.464844"/><stop stop-opacity="1" stop-color="rgb(88.142395%, 7.563782%, 39.74762%)" offset="0.46875"/><stop stop-opacity="1" stop-color="rgb(87.686157%, 7.646179%, 39.877319%)" offset="0.472656"/><stop stop-opacity="1" stop-color="rgb(87.229919%, 7.728577%, 40.007019%)" offset="0.476562"/><stop stop-opacity="1" stop-color="rgb(86.773682%, 7.8125%, 40.136719%)" offset="0.480469"/><stop stop-opacity="1" stop-color="rgb(86.317444%, 7.894897%, 40.266418%)" offset="0.484375"/><stop stop-opacity="1" stop-color="rgb(85.861206%, 7.977295%, 40.396118%)" offset="0.488281"/><stop stop-opacity="1" stop-color="rgb(85.404968%, 8.061218%, 40.525818%)" offset="0.492188"/><stop stop-opacity="1" stop-color="rgb(84.947205%, 8.143616%, 40.655518%)" offset="0.496094"/><stop stop-opacity="1" stop-color="rgb(84.490967%, 8.226013%, 40.783691%)" offset="0.5"/><stop stop-opacity="1" stop-color="rgb(84.034729%, 8.309937%, 40.913391%)" offset="0.503906"/><stop stop-opacity="1" stop-color="rgb(83.578491%, 8.392334%, 41.043091%)" offset="0.507812"/><stop stop-opacity="1" stop-color="rgb(83.122253%, 8.474731%, 41.172791%)" offset="0.511719"/><stop stop-opacity="1" stop-color="rgb(82.666016%, 8.558655%, 41.30249%)" offset="0.515625"/><stop stop-opacity="1" stop-color="rgb(82.209778%, 8.641052%, 41.43219%)" offset="0.519531"/><stop stop-opacity="1" stop-color="rgb(81.75354%, 8.72345%, 41.56189%)" offset="0.523438"/><stop stop-opacity="1" stop-color="rgb(81.295776%, 8.807373%, 41.691589%)" offset="0.527344"/><stop stop-opacity="1" stop-color="rgb(80.839539%, 8.889771%, 41.821289%)" offset="0.53125"/><stop stop-opacity="1" stop-color="rgb(80.383301%, 8.972168%, 41.949463%)" offset="0.535156"/><stop stop-opacity="1" stop-color="rgb(79.927063%, 9.056091%, 42.079163%)" offset="0.539062"/><stop stop-opacity="1" stop-color="rgb(79.470825%, 9.138489%, 42.208862%)" offset="0.542969"/><stop stop-opacity="1" stop-color="rgb(79.014587%, 9.220886%, 42.338562%)" offset="0.546875"/><stop stop-opacity="1" stop-color="rgb(78.55835%, 9.30481%, 42.468262%)" offset="0.550781"/><stop stop-opacity="1" stop-color="rgb(78.102112%, 9.387207%, 42.597961%)" offset="0.554688"/><stop stop-opacity="1" stop-color="rgb(77.645874%, 9.469604%, 42.727661%)" offset="0.558594"/><stop stop-opacity="1" stop-color="rgb(77.18811%, 9.553528%, 42.857361%)" offset="0.5625"/><stop stop-opacity="1" stop-color="rgb(76.731873%, 9.635925%, 42.985535%)" offset="0.566406"/><stop stop-opacity="1" stop-color="rgb(76.275635%, 9.718323%, 43.115234%)" offset="0.570312"/><stop stop-opacity="1" stop-color="rgb(75.819397%, 9.802246%, 43.244934%)" offset="0.574219"/><stop stop-opacity="1" stop-color="rgb(75.363159%, 9.884644%, 43.374634%)" offset="0.578125"/><stop stop-opacity="1" stop-color="rgb(74.906921%, 9.967041%, 43.504333%)" offset="0.582031"/><stop stop-opacity="1" stop-color="rgb(74.450684%, 10.050964%, 43.634033%)" offset="0.585938"/><stop stop-opacity="1" stop-color="rgb(73.994446%, 10.133362%, 43.763733%)" offset="0.589844"/><stop stop-opacity="1" stop-color="rgb(73.538208%, 10.217285%, 43.893433%)" offset="0.59375"/><stop stop-opacity="1" stop-color="rgb(73.080444%, 10.299683%, 44.023132%)" offset="0.597656"/><stop stop-opacity="1" stop-color="rgb(72.624207%, 10.38208%, 44.151306%)" offset="0.601562"/><stop stop-opacity="1" stop-color="rgb(72.167969%, 10.466003%, 44.281006%)" offset="0.605469"/><stop stop-opacity="1" stop-color="rgb(71.711731%, 10.548401%, 44.410706%)" offset="0.609375"/><stop stop-opacity="1" stop-color="rgb(71.255493%, 10.630798%, 44.540405%)" offset="0.613281"/><stop stop-opacity="1" stop-color="rgb(70.799255%, 10.714722%, 44.670105%)" offset="0.617188"/><stop stop-opacity="1" stop-color="rgb(70.343018%, 10.797119%, 44.799805%)" offset="0.621094"/><stop stop-opacity="1" stop-color="rgb(69.88678%, 10.879517%, 44.929504%)" offset="0.625"/><stop stop-opacity="1" stop-color="rgb(69.429016%, 10.96344%, 45.059204%)" offset="0.628906"/><stop stop-opacity="1" stop-color="rgb(68.972778%, 11.045837%, 45.188904%)" offset="0.632812"/><stop stop-opacity="1" stop-color="rgb(68.516541%, 11.128235%, 45.317078%)" offset="0.636719"/><stop stop-opacity="1" stop-color="rgb(68.060303%, 11.212158%, 45.446777%)" offset="0.640625"/><stop stop-opacity="1" stop-color="rgb(67.604065%, 11.294556%, 45.576477%)" offset="0.644531"/><stop stop-opacity="1" stop-color="rgb(67.147827%, 11.376953%, 45.706177%)" offset="0.648438"/><stop stop-opacity="1" stop-color="rgb(66.691589%, 11.460876%, 45.835876%)" offset="0.652344"/><stop stop-opacity="1" stop-color="rgb(66.235352%, 11.543274%, 45.965576%)" offset="0.65625"/><stop stop-opacity="1" stop-color="rgb(65.779114%, 11.625671%, 46.095276%)" offset="0.660156"/><stop stop-opacity="1" stop-color="rgb(65.32135%, 11.709595%, 46.224976%)" offset="0.664062"/><stop stop-opacity="1" stop-color="rgb(64.865112%, 11.791992%, 46.353149%)" offset="0.667969"/><stop stop-opacity="1" stop-color="rgb(64.408875%, 11.87439%, 46.482849%)" offset="0.671875"/><stop stop-opacity="1" stop-color="rgb(63.952637%, 11.958313%, 46.612549%)" offset="0.675781"/><stop stop-opacity="1" stop-color="rgb(63.496399%, 12.04071%, 46.742249%)" offset="0.679688"/><stop stop-opacity="1" stop-color="rgb(63.040161%, 12.123108%, 46.871948%)" offset="0.683594"/><stop stop-opacity="1" stop-color="rgb(62.583923%, 12.207031%, 47.001648%)" offset="0.6875"/><stop stop-opacity="1" stop-color="rgb(62.127686%, 12.289429%, 47.131348%)" offset="0.691406"/><stop stop-opacity="1" stop-color="rgb(61.669922%, 12.371826%, 47.261047%)" offset="0.695312"/><stop stop-opacity="1" stop-color="rgb(61.213684%, 12.45575%, 47.390747%)" offset="0.699219"/><stop stop-opacity="1" stop-color="rgb(60.757446%, 12.538147%, 47.518921%)" offset="0.703125"/><stop stop-opacity="1" stop-color="rgb(60.301208%, 12.620544%, 47.648621%)" offset="0.707031"/><stop stop-opacity="1" stop-color="rgb(59.844971%, 12.704468%, 47.77832%)" offset="0.710938"/><stop stop-opacity="1" stop-color="rgb(59.388733%, 12.786865%, 47.90802%)" offset="0.714844"/><stop stop-opacity="1" stop-color="rgb(58.932495%, 12.870789%, 48.03772%)" offset="0.71875"/><stop stop-opacity="1" stop-color="rgb(58.476257%, 12.953186%, 48.167419%)" offset="0.722656"/><stop stop-opacity="1" stop-color="rgb(58.02002%, 13.035583%, 48.297119%)" offset="0.726562"/><stop stop-opacity="1" stop-color="rgb(57.562256%, 13.119507%, 48.426819%)" offset="0.730469"/><stop stop-opacity="1" stop-color="rgb(57.106018%, 13.201904%, 48.556519%)" offset="0.734375"/><stop stop-opacity="1" stop-color="rgb(56.64978%, 13.284302%, 48.684692%)" offset="0.738281"/><stop stop-opacity="1" stop-color="rgb(56.193542%, 13.368225%, 48.814392%)" offset="0.742188"/><stop stop-opacity="1" stop-color="rgb(55.737305%, 13.450623%, 48.944092%)" offset="0.746094"/><stop stop-opacity="1" stop-color="rgb(55.281067%, 13.53302%, 49.073792%)" offset="0.75"/><stop stop-opacity="1" stop-color="rgb(54.824829%, 13.616943%, 49.203491%)" offset="0.753906"/><stop stop-opacity="1" stop-color="rgb(54.368591%, 13.699341%, 49.333191%)" offset="0.757812"/><stop stop-opacity="1" stop-color="rgb(53.912354%, 13.781738%, 49.462891%)" offset="0.761719"/><stop stop-opacity="1" stop-color="rgb(53.45459%, 13.865662%, 49.59259%)" offset="0.765625"/><stop stop-opacity="1" stop-color="rgb(52.998352%, 13.948059%, 49.720764%)" offset="0.769531"/><stop stop-opacity="1" stop-color="rgb(52.542114%, 14.030457%, 49.850464%)" offset="0.773438"/><stop stop-opacity="1" stop-color="rgb(52.085876%, 14.11438%, 49.980164%)" offset="0.777344"/><stop stop-opacity="1" stop-color="rgb(51.629639%, 14.196777%, 50.109863%)" offset="0.78125"/><stop stop-opacity="1" stop-color="rgb(51.173401%, 14.279175%, 50.239563%)" offset="0.785156"/><stop stop-opacity="1" stop-color="rgb(50.717163%, 14.363098%, 50.369263%)" offset="0.789062"/><stop stop-opacity="1" stop-color="rgb(50.260925%, 14.445496%, 50.498962%)" offset="0.792969"/><stop stop-opacity="1" stop-color="rgb(49.803162%, 14.527893%, 50.628662%)" offset="0.796875"/><stop stop-opacity="1" stop-color="rgb(49.346924%, 14.611816%, 50.758362%)" offset="0.800781"/><stop stop-opacity="1" stop-color="rgb(48.890686%, 14.694214%, 50.886536%)" offset="0.804688"/><stop stop-opacity="1" stop-color="rgb(48.434448%, 14.776611%, 51.016235%)" offset="0.808594"/><stop stop-opacity="1" stop-color="rgb(47.97821%, 14.860535%, 51.145935%)" offset="0.8125"/><stop stop-opacity="1" stop-color="rgb(47.521973%, 14.942932%, 51.275635%)" offset="0.816406"/><stop stop-opacity="1" stop-color="rgb(47.065735%, 15.02533%, 51.405334%)" offset="0.820312"/><stop stop-opacity="1" stop-color="rgb(46.609497%, 15.109253%, 51.535034%)" offset="0.824219"/><stop stop-opacity="1" stop-color="rgb(46.153259%, 15.19165%, 51.664734%)" offset="0.828125"/><stop stop-opacity="1" stop-color="rgb(45.695496%, 15.274048%, 51.794434%)" offset="0.832031"/><stop stop-opacity="1" stop-color="rgb(45.239258%, 15.357971%, 51.922607%)" offset="0.835938"/><stop stop-opacity="1" stop-color="rgb(44.78302%, 15.440369%, 52.052307%)" offset="0.839844"/><stop stop-opacity="1" stop-color="rgb(44.326782%, 15.524292%, 52.182007%)" offset="0.84375"/><stop stop-opacity="1" stop-color="rgb(43.870544%, 15.606689%, 52.311707%)" offset="0.847656"/><stop stop-opacity="1" stop-color="rgb(43.414307%, 15.689087%, 52.441406%)" offset="0.851562"/><stop stop-opacity="1" stop-color="rgb(42.958069%, 15.77301%, 52.571106%)" offset="0.855469"/><stop stop-opacity="1" stop-color="rgb(42.501831%, 15.855408%, 52.700806%)" offset="0.859375"/><stop stop-opacity="1" stop-color="rgb(42.045593%, 15.937805%, 52.830505%)" offset="0.863281"/><stop stop-opacity="1" stop-color="rgb(41.58783%, 16.021729%, 52.960205%)" offset="0.867188"/><stop stop-opacity="1" stop-color="rgb(41.131592%, 16.104126%, 53.088379%)" offset="0.871094"/><stop stop-opacity="1" stop-color="rgb(40.675354%, 16.186523%, 53.218079%)" offset="0.875"/><stop stop-opacity="1" stop-color="rgb(40.219116%, 16.270447%, 53.347778%)" offset="0.878906"/><stop stop-opacity="1" stop-color="rgb(39.762878%, 16.352844%, 53.477478%)" offset="0.882812"/><stop stop-opacity="1" stop-color="rgb(39.306641%, 16.435242%, 53.607178%)" offset="0.886719"/><stop stop-opacity="1" stop-color="rgb(38.850403%, 16.519165%, 53.736877%)" offset="0.890625"/><stop stop-opacity="1" stop-color="rgb(38.394165%, 16.601562%, 53.866577%)" offset="0.894531"/><stop stop-opacity="1" stop-color="rgb(37.936401%, 16.68396%, 53.996277%)" offset="0.898438"/><stop stop-opacity="1" stop-color="rgb(37.480164%, 16.767883%, 54.125977%)" offset="0.902344"/><stop stop-opacity="1" stop-color="rgb(37.023926%, 16.850281%, 54.25415%)" offset="0.90625"/><stop stop-opacity="1" stop-color="rgb(36.567688%, 16.932678%, 54.38385%)" offset="0.910156"/><stop stop-opacity="1" stop-color="rgb(36.11145%, 17.016602%, 54.51355%)" offset="0.914062"/><stop stop-opacity="1" stop-color="rgb(35.655212%, 17.098999%, 54.64325%)" offset="0.917969"/><stop stop-opacity="1" stop-color="rgb(35.198975%, 17.181396%, 54.772949%)" offset="0.921875"/><stop stop-opacity="1" stop-color="rgb(34.742737%, 17.26532%, 54.902649%)" offset="0.925781"/><stop stop-opacity="1" stop-color="rgb(34.286499%, 17.347717%, 55.032349%)" offset="0.929688"/><stop stop-opacity="1" stop-color="rgb(33.828735%, 17.430115%, 55.162048%)" offset="0.933594"/><stop stop-opacity="1" stop-color="rgb(33.372498%, 17.514038%, 55.290222%)" offset="0.9375"/><stop stop-opacity="1" stop-color="rgb(32.91626%, 17.596436%, 55.419922%)" offset="0.941406"/><stop stop-opacity="1" stop-color="rgb(32.460022%, 17.678833%, 55.549622%)" offset="0.945312"/><stop stop-opacity="1" stop-color="rgb(32.003784%, 17.762756%, 55.679321%)" offset="0.949219"/><stop stop-opacity="1" stop-color="rgb(31.547546%, 17.845154%, 55.809021%)" offset="0.953125"/><stop stop-opacity="1" stop-color="rgb(31.091309%, 17.927551%, 55.938721%)" offset="0.957031"/><stop stop-opacity="1" stop-color="rgb(30.635071%, 18.011475%, 56.06842%)" offset="0.960938"/><stop stop-opacity="1" stop-color="rgb(30.178833%, 18.093872%, 56.19812%)" offset="0.964844"/><stop stop-opacity="1" stop-color="rgb(29.721069%, 18.177795%, 56.32782%)" offset="0.96875"/><stop stop-opacity="1" stop-color="rgb(29.264832%, 18.260193%, 56.455994%)" offset="0.972656"/><stop stop-opacity="1" stop-color="rgb(28.808594%, 18.34259%, 56.585693%)" offset="0.976562"/><stop stop-opacity="1" stop-color="rgb(28.352356%, 18.426514%, 56.715393%)" offset="0.980469"/><stop stop-opacity="1" stop-color="rgb(27.896118%, 18.508911%, 56.845093%)" offset="0.984375"/><stop stop-opacity="1" stop-color="rgb(27.43988%, 18.591309%, 56.974792%)" offset="0.988281"/><stop stop-opacity="1" stop-color="rgb(26.983643%, 18.675232%, 57.104492%)" offset="0.992188"/><stop stop-opacity="1" stop-color="rgb(26.527405%, 18.757629%, 57.234192%)" offset="0.996094"/><stop stop-opacity="1" stop-color="rgb(26.298523%, 18.798828%, 57.299805%)" offset="1"/></radialGradient></defs><g clip-path="url(#id1)"><path fill="#ffffff" d="M 0 0.0585938 L 224.878906 0.0585938 L 224.878906 232.4375 L 0 232.4375 Z M 0 0.0585938 " fill-opacity="1" fill-rule="nonzero"/><path fill="#000000" d="M 0 0.0585938 L 224.878906 0.0585938 L 224.878906 224.941406 L 0 224.941406 Z M 0 0.0585938 " fill-opacity="1" fill-rule="nonzero"/><path fill="#ffffff" d="M 0 0.0585938 L 224.878906 0.0585938 L 224.878906 224.941406 L 0 224.941406 Z M 0 0.0585938 " fill-opacity="1" fill-rule="nonzero"/><path fill="#000000" d="M 0 0.0585938 L 224.878906 0.0585938 L 224.878906 224.941406 L 0 224.941406 Z M 0 0.0585938 " fill-opacity="1" fill-rule="nonzero"/></g><g clip-path="url(#id2)"><g clip-path="url(#id3)"><path fill="url(#id4)" d="M 36.703125 25.664062 L 36.703125 199.355469 L 188.121094 199.355469 L 188.121094 25.664062 Z M 36.703125 25.664062 " fill-rule="nonzero"/></g></g></svg>